<svg xmlns="http://www.w3.org/2000/svg" version="1.1" xmlns:xlink="http://www.w3.org/1999/xlink" xmlns:svgjs="http://svgjs.com/svgjs" width="30" height="30" x="0" y="0" viewBox="0 0 24 24" style="enable-background:new 0 0 512 512" xml:space="preserve" class="">
  <g>
    <path d="M18 2c2.206 0 4 1.794 4 4v12c0 2.206-1.794 4-4 4H6c-2.206 0-4-1.794-4-4V6c0-2.206 1.794-4 4-4zm0-2H6a6 6 0 0 0-6 6v12a6 6 0 0 0 6 6h12a6 6 0 0 0 6-6V6a6 6 0 0 0-6-6z" fill="rgba(212,198,109,0.8)" data-original="#000000" class=""></path>
    <line x1="5" y1="19" x2="19" y2="5" stroke="rgba(212,198,109,0.8)" stroke-width="2" />
  </g>
</svg>