<svg xmlns="http://www.w3.org/2000/svg" version="1.1" xmlns:xlink="http://www.w3.org/1999/xlink" xmlns:svgjs="http://svgjs.com/svgjs" width="512" height="512" x="0" y="0" viewBox="0 0 463.937 463.937" style="enable-background:new 0 0 512 512" xml:space="preserve" class=""><g><path d="m460.414 216.518-85.6-73.1c.1-.5.2-1 .3-1.6v-95.6c-.1-5.7-4.6-10.3-10.3-10.5h-47.8c-5.5 0-10 4.9-10 10.5v39.6l-68.5-58.4c-3.7-3.2-9.2-3.2-13 0l-221.9 189c-4.3 3.5-4.8 9.8-1.3 14.1s9.8 4.8 14.1 1.3l.2-.2 215.4-183.4 77.1 65.7 46.1 39.2 92.3 78.6c4.2 3.6 10.5 3.1 14.1-1.1 3.5-4.2 3-10.5-1.2-14.1zm-105.4-90-28-23.6v-47.1h28v70.7z" fill="#000000" data-original="#000000" class=""></path><path d="m416.314 236.718-28.1-24-149.7-127.9c-3.7-3.2-9.2-3.2-13 0l-149.7 127.9-28.1 24c-4.2 3.6-4.7 9.9-1.1 14.1 3.5 4.2 9.7 4.7 13.8 1.2l.1-.1 12.5-10.8v187.5c.1 5.6 4.7 10.2 10.3 10.3h297.3c5.6-.1 10.2-4.6 10.3-10.3v-187.5l12.5 10.8c1.8 1.5 4 2.4 6.4 2.4 2.9 0 5.7-1.3 7.6-3.5 3.7-4.3 3.1-10.6-1.1-14.1zm-144.3 182.1h-80v-108h80v108zm20 0v-117.7c0-5.5-4.1-10.3-9.6-10.3h-100.8c-5.5 0-9.6 4.8-9.6 10.3v117.7h-79v-194.8l139-118.4 139 118.4v194.8h-79z" fill="#000000" data-original="#000000" class=""></path></g></svg>