<svg xmlns="http://www.w3.org/2000/svg" version="1.1" xmlns:xlink="http://www.w3.org/1999/xlink" xmlns:svgjs="http://svgjs.com/svgjs" width="512" height="512" x="0" y="0" viewBox="0 0 512 512" style="enable-background:new 0 0 512 512" xml:space="preserve" class=""><g><circle cx="467" cy="45" r="15" fill="#000000" data-original="#000000" class=""></circle><circle cx="497" cy="166" r="15" fill="#000000" data-original="#000000" class=""></circle><path d="M257 512c109.336 0 206.353-70.668 241.421-174.35 2.139-6.313-.161-13.286-5.625-17.109-5.449-3.794-12.788-3.56-18.003.63C442.464 347.23 403.455 361 362 361c-99.258 0-181-80.742-181-180 0-62.065 32.509-119.989 85.302-153.256 5.654-3.56 7.617-10.459 5.757-16.875C270.213 4.453 263.68 0 257 0 116.39 0 0 115.39 0 256s116.39 256 257 256z" fill="#000000" data-original="#000000" class=""></path><path d="M287 121c24.814 0 45 20.186 45 45 0 8.291 6.709 15 15 15s15-6.709 15-15c0-24.814 20.186-45 45-45 8.291 0 15-6.709 15-15s-6.709-15-15-15c-24.814 0-45-21.186-45-46 0-8.291-6.709-15-15-15s-15 6.709-15 15c0 24.814-20.186 46-45 46-8.291 0-15 6.709-15 15s6.709 15 15 15z" fill="#000000" data-original="#000000" class=""></path></g></svg>