<svg xmlns="http://www.w3.org/2000/svg" version="1.1" xmlns:xlink="http://www.w3.org/1999/xlink" xmlns:svgjs="http://svgjs.com/svgjs" width="512" height="512" x="0" y="0" viewBox="0 0 32 32" style="enable-background:new 0 0 512 512" xml:space="preserve" class=""><g><g data-name="29-Tax"><path d="m29.71 8.29-6-6A1 1 0 0 0 23 2H11a3 3 0 0 0-3 3v6a1 1 0 0 0 2 0V5a1 1 0 0 1 1-1h11v3a3 3 0 0 0 3 3h3v17a1 1 0 0 1-1 1h-8a1 1 0 0 0 0 2h8a3 3 0 0 0 3-3V9a1 1 0 0 0-.29-.71zM24 7V5.41L26.59 8H25a1 1 0 0 1-1-1z" fill="#000000" data-original="#000000" class=""></path><path d="M10 14a8 8 0 1 0 8 8 8 8 0 0 0-8-8zm0 14a6 6 0 1 1 6-6 6 6 0 0 1-6 6z" fill="#000000" data-original="#000000" class=""></path><path d="m11.29 19.29-4 4a1 1 0 0 0 0 1.42 1 1 0 0 0 1.42 0l4-4a1 1 0 0 0-1.42-1.42z" fill="#000000" data-original="#000000" class=""></path><circle cx="8" cy="20" r="1" fill="#000000" data-original="#000000" class=""></circle><circle cx="12" cy="24" r="1" fill="#000000" data-original="#000000" class=""></circle><path d="M19 8h-6a1 1 0 0 0 0 2h6a1 1 0 0 0 0-2zM25 13h-6a1 1 0 0 0 0 2h6a1 1 0 0 0 0-2zM25 18h-4a1 1 0 0 0 0 2h4a1 1 0 0 0 0-2zM25 23h-4a1 1 0 0 0 0 2h4a1 1 0 0 0 0-2z" fill="#000000" data-original="#000000" class=""></path></g></g></svg>