<svg xmlns="http://www.w3.org/2000/svg" version="1.1" xmlns:xlink="http://www.w3.org/1999/xlink" xmlns:svgjs="http://svgjs.com/svgjs" width="512" height="512" x="0" y="0" viewBox="0 0 24 24" style="enable-background:new 0 0 512 512" xml:space="preserve" class=""><g><path fill="#000000" fill-rule="evenodd" d="M11.5 9.003a1.001 1.001 0 0 1 0-2 1.001 1.001 0 0 1 0 2m1 7h-2a.5.5 0 0 1 0-1h.5v-4h-.5a.5.5 0 0 1 0-1h1a.5.5 0 0 1 .5.5v4.5h.5a.5.5 0 0 1 0 1m-1-13c-4.688 0-8.5 3.813-8.5 8.5s3.812 8.5 8.5 8.5c4.686 0 8.5-3.813 8.5-8.5s-3.814-8.5-8.5-8.5m0 18c-5.239 0-9.5-4.262-9.5-9.5s4.261-9.5 9.5-9.5c5.237 0 9.5 4.262 9.5 9.5s-4.263 9.5-9.5 9.5" data-original="#000000" class=""></path></g></svg>